<svg height="2500" viewBox="80.7 76.3 106.6 115.5" width="1652" xmlns="http://www.w3.org/2000/svg"><g fill="#0d1a2b"><path d="m106 179.6v-91.9c0-1-.7-1.6-1.3-1.6l-5.9-1c-1 0-2 .7-2 1.6v93.5c0 1.3 1 2 2 2l5.6-.7c.9-.2 1.6-.9 1.6-1.9zm-16.1-8.5v-75.2c0-1-.7-1.6-1.6-1.6l-5.6-.7c-1 0-2 .7-2 1.6v76.5c0 1 1 2 2 1.6l5.6-.7c.9.1 1.6-.5 1.6-1.5z"/><path clip-rule="evenodd" d="m186 88.4-71.2-11.8c-1-.3-2 .7-2 1.6v111.6c0 1 1 2 2 1.6l71.2-12.4c.7 0 1.3-1 1.3-1.6v-87.4c0-1-.6-1.6-1.3-1.6zm-7.5 81c0 1-.7 1.6-1.3 1.6l-50.2 7.2c-1 0-2-.7-2-1.6v-83.6c0-1 1-2 2-1.6l50.2 6.2c1 0 1.6 1 1.6 1.6v70.2z" fill-rule="evenodd"/></g></svg>